<mxfile host="app.diagrams.net" agent="Mozilla/5.0 (X11; Linux x86_64; rv:134.0) Gecko/20100101 Firefox/134.0" version="26.0.11">
  <diagram name="Page-1" id="2MpTTN4dG6TS3EFkwLII">
    <mxGraphModel dx="2327" dy="1518" grid="1" gridSize="10" guides="1" tooltips="1" connect="1" arrows="1" fold="1" page="1" pageScale="1" pageWidth="1100" pageHeight="1700" math="0" shadow="0">
      <root>
        <mxCell id="0" />
        <mxCell id="1" parent="0" />
        <mxCell id="1Ev_Z0uIvsRZ40nr7bww-20" value="" style="group" vertex="1" connectable="0" parent="1">
          <mxGeometry x="154" y="770" width="80" height="80" as="geometry" />
        </mxCell>
        <mxCell id="1Ev_Z0uIvsRZ40nr7bww-19" value="" style="ellipse;whiteSpace=wrap;html=1;aspect=fixed;" vertex="1" parent="1Ev_Z0uIvsRZ40nr7bww-20">
          <mxGeometry width="80" height="80" as="geometry" />
        </mxCell>
        <mxCell id="1Ev_Z0uIvsRZ40nr7bww-9" value="" style="group" vertex="1" connectable="0" parent="1Ev_Z0uIvsRZ40nr7bww-20">
          <mxGeometry x="16.5" y="13.150000000000034" width="47" height="53.71" as="geometry" />
        </mxCell>
        <mxCell id="1Ev_Z0uIvsRZ40nr7bww-4" value="" style="shape=actor;whiteSpace=wrap;html=1;" vertex="1" parent="1Ev_Z0uIvsRZ40nr7bww-9">
          <mxGeometry x="13.428571428571427" width="20.142857142857142" height="26.855000000000004" as="geometry" />
        </mxCell>
        <mxCell id="1Ev_Z0uIvsRZ40nr7bww-5" value="" style="shape=actor;whiteSpace=wrap;html=1;" vertex="1" parent="1Ev_Z0uIvsRZ40nr7bww-9">
          <mxGeometry x="26.857142857142854" y="6.713750000000001" width="20.142857142857142" height="26.855000000000004" as="geometry" />
        </mxCell>
        <mxCell id="1Ev_Z0uIvsRZ40nr7bww-6" value="" style="shape=actor;whiteSpace=wrap;html=1;" vertex="1" parent="1Ev_Z0uIvsRZ40nr7bww-9">
          <mxGeometry y="6.713750000000001" width="20.142857142857142" height="26.855000000000004" as="geometry" />
        </mxCell>
        <mxCell id="1Ev_Z0uIvsRZ40nr7bww-7" value="USERS" style="text;html=1;align=center;verticalAlign=middle;whiteSpace=wrap;rounded=0;" vertex="1" parent="1Ev_Z0uIvsRZ40nr7bww-9">
          <mxGeometry x="3.3571428571428568" y="33.56875" width="40.285714285714285" height="20.141250000000003" as="geometry" />
        </mxCell>
        <mxCell id="1Ev_Z0uIvsRZ40nr7bww-213" style="edgeStyle=orthogonalEdgeStyle;rounded=0;orthogonalLoop=1;jettySize=auto;html=1;exitX=1;exitY=0;exitDx=0;exitDy=0;entryX=0;entryY=0.5;entryDx=0;entryDy=0;" edge="1" parent="1" source="1Ev_Z0uIvsRZ40nr7bww-23" target="1Ev_Z0uIvsRZ40nr7bww-95">
          <mxGeometry relative="1" as="geometry">
            <Array as="points">
              <mxPoint x="394" y="990" />
            </Array>
          </mxGeometry>
        </mxCell>
        <mxCell id="1Ev_Z0uIvsRZ40nr7bww-215" style="edgeStyle=orthogonalEdgeStyle;rounded=0;orthogonalLoop=1;jettySize=auto;html=1;exitX=0.5;exitY=1;exitDx=0;exitDy=0;entryX=0;entryY=0.5;entryDx=0;entryDy=0;" edge="1" parent="1" source="1Ev_Z0uIvsRZ40nr7bww-23" target="1Ev_Z0uIvsRZ40nr7bww-112">
          <mxGeometry relative="1" as="geometry" />
        </mxCell>
        <mxCell id="1Ev_Z0uIvsRZ40nr7bww-23" value="&lt;font style=&quot;font-size: 10px;&quot;&gt;TRAEFIK&lt;/font&gt;" style="text;html=1;align=center;verticalAlign=middle;whiteSpace=wrap;rounded=0;" vertex="1" parent="1">
          <mxGeometry x="311.5" y="850" width="82.5" height="30" as="geometry" />
        </mxCell>
        <mxCell id="1Ev_Z0uIvsRZ40nr7bww-76" value="" style="group" vertex="1" connectable="0" parent="1">
          <mxGeometry x="471.5" y="410" width="162.5" height="160" as="geometry" />
        </mxCell>
        <mxCell id="1Ev_Z0uIvsRZ40nr7bww-196" style="edgeStyle=orthogonalEdgeStyle;rounded=0;orthogonalLoop=1;jettySize=auto;html=1;exitX=1;exitY=0.5;exitDx=0;exitDy=0;" edge="1" parent="1Ev_Z0uIvsRZ40nr7bww-76" source="1Ev_Z0uIvsRZ40nr7bww-53">
          <mxGeometry relative="1" as="geometry">
            <mxPoint x="282.5" y="360" as="targetPoint" />
          </mxGeometry>
        </mxCell>
        <mxCell id="1Ev_Z0uIvsRZ40nr7bww-53" value="" style="rounded=0;whiteSpace=wrap;html=1;" vertex="1" parent="1Ev_Z0uIvsRZ40nr7bww-76">
          <mxGeometry y="40" width="162.5" height="120" as="geometry" />
        </mxCell>
        <mxCell id="1Ev_Z0uIvsRZ40nr7bww-54" value="&lt;h4&gt;USER SERVICE&lt;/h4&gt;" style="text;html=1;align=center;verticalAlign=middle;whiteSpace=wrap;rounded=0;" vertex="1" parent="1Ev_Z0uIvsRZ40nr7bww-76">
          <mxGeometry width="162.5" height="40" as="geometry" />
        </mxCell>
        <mxCell id="1Ev_Z0uIvsRZ40nr7bww-56" value="" style="aspect=fixed;sketch=0;html=1;dashed=0;whitespace=wrap;verticalLabelPosition=bottom;verticalAlign=top;fillColor=#2875E2;strokeColor=#ffffff;points=[[0.005,0.63,0],[0.1,0.2,0],[0.9,0.2,0],[0.5,0,0],[0.995,0.63,0],[0.72,0.99,0],[0.5,1,0],[0.28,0.99,0]];shape=mxgraph.kubernetes.icon2;prIcon=api" vertex="1" parent="1Ev_Z0uIvsRZ40nr7bww-76">
          <mxGeometry x="9.668749999999982" y="95.60000000000002" width="36.111111111111114" height="34.666666666666664" as="geometry" />
        </mxCell>
        <mxCell id="1Ev_Z0uIvsRZ40nr7bww-57" value="" style="image;sketch=0;aspect=fixed;html=1;points=[];align=center;fontSize=12;image=img/lib/mscae/Cache_Redis_Product.svg;" vertex="1" parent="1Ev_Z0uIvsRZ40nr7bww-76">
          <mxGeometry x="63.19444444444444" y="46" width="36.53541666666666" height="30.694444444444446" as="geometry" />
        </mxCell>
        <mxCell id="1Ev_Z0uIvsRZ40nr7bww-59" value="&lt;font style=&quot;font-size: 8px;&quot;&gt;API&lt;/font&gt;" style="text;html=1;align=center;verticalAlign=middle;whiteSpace=wrap;rounded=0;" vertex="1" parent="1Ev_Z0uIvsRZ40nr7bww-76">
          <mxGeometry x="9.668749999999982" y="134" width="36.111111111111114" height="14" as="geometry" />
        </mxCell>
        <mxCell id="1Ev_Z0uIvsRZ40nr7bww-61" value="&lt;font style=&quot;font-size: 8px;&quot;&gt;REDIS&lt;/font&gt;" style="text;html=1;align=center;verticalAlign=middle;whiteSpace=wrap;rounded=0;" vertex="1" parent="1Ev_Z0uIvsRZ40nr7bww-76">
          <mxGeometry x="63.19444444444444" y="80" width="36.111111111111114" height="20" as="geometry" />
        </mxCell>
        <mxCell id="1Ev_Z0uIvsRZ40nr7bww-68" value="" style="group" vertex="1" connectable="0" parent="1Ev_Z0uIvsRZ40nr7bww-76">
          <mxGeometry x="113.75" y="98" width="36.111111111111114" height="40" as="geometry" />
        </mxCell>
        <mxCell id="1Ev_Z0uIvsRZ40nr7bww-73" value="" style="group" vertex="1" connectable="0" parent="1Ev_Z0uIvsRZ40nr7bww-68">
          <mxGeometry y="-2" width="36.111111111111114" height="40" as="geometry" />
        </mxCell>
        <mxCell id="1Ev_Z0uIvsRZ40nr7bww-64" value="" style="ellipse;whiteSpace=wrap;html=1;aspect=fixed;" vertex="1" parent="1Ev_Z0uIvsRZ40nr7bww-73">
          <mxGeometry width="36.111111111111114" height="36.111111111111114" as="geometry" />
        </mxCell>
        <mxCell id="1Ev_Z0uIvsRZ40nr7bww-58" value="" style="shape=datastore;whiteSpace=wrap;html=1;" vertex="1" parent="1Ev_Z0uIvsRZ40nr7bww-73">
          <mxGeometry x="19.409722222222225" y="21" width="9.027777777777779" height="15" as="geometry" />
        </mxCell>
        <mxCell id="1Ev_Z0uIvsRZ40nr7bww-62" value="" style="shape=datastore;whiteSpace=wrap;html=1;" vertex="1" parent="1Ev_Z0uIvsRZ40nr7bww-73">
          <mxGeometry x="7.6736111111111125" y="4" width="9.027777777777779" height="15" as="geometry" />
        </mxCell>
        <mxCell id="1Ev_Z0uIvsRZ40nr7bww-65" style="edgeStyle=orthogonalEdgeStyle;rounded=0;orthogonalLoop=1;jettySize=auto;html=1;entryX=0.019;entryY=0.581;entryDx=0;entryDy=0;entryPerimeter=0;strokeWidth=0.5;" edge="1" parent="1Ev_Z0uIvsRZ40nr7bww-73" source="1Ev_Z0uIvsRZ40nr7bww-62" target="1Ev_Z0uIvsRZ40nr7bww-58">
          <mxGeometry relative="1" as="geometry">
            <Array as="points">
              <mxPoint x="9.479166666666668" y="29.5" />
            </Array>
          </mxGeometry>
        </mxCell>
        <mxCell id="1Ev_Z0uIvsRZ40nr7bww-67" style="edgeStyle=orthogonalEdgeStyle;rounded=0;orthogonalLoop=1;jettySize=auto;html=1;entryX=0.963;entryY=0.579;entryDx=0;entryDy=0;entryPerimeter=0;strokeWidth=0.5;" edge="1" parent="1Ev_Z0uIvsRZ40nr7bww-73" source="1Ev_Z0uIvsRZ40nr7bww-58" target="1Ev_Z0uIvsRZ40nr7bww-62">
          <mxGeometry relative="1" as="geometry">
            <Array as="points">
              <mxPoint x="23.923611111111114" y="12.5" />
            </Array>
          </mxGeometry>
        </mxCell>
        <mxCell id="1Ev_Z0uIvsRZ40nr7bww-72" value="&lt;font style=&quot;font-size: 8px;&quot;&gt;DATABASE&lt;/font&gt;" style="text;html=1;align=center;verticalAlign=middle;whiteSpace=wrap;rounded=0;" vertex="1" parent="1Ev_Z0uIvsRZ40nr7bww-76">
          <mxGeometry x="109.23611111111111" y="138" width="45.13888888888889" height="10" as="geometry" />
        </mxCell>
        <mxCell id="1Ev_Z0uIvsRZ40nr7bww-74" style="edgeStyle=orthogonalEdgeStyle;rounded=0;orthogonalLoop=1;jettySize=auto;html=1;" edge="1" parent="1Ev_Z0uIvsRZ40nr7bww-76" source="1Ev_Z0uIvsRZ40nr7bww-56" target="1Ev_Z0uIvsRZ40nr7bww-57">
          <mxGeometry relative="1" as="geometry">
            <Array as="points">
              <mxPoint x="28" y="76" />
              <mxPoint x="27" y="76" />
              <mxPoint x="27" y="65" />
            </Array>
          </mxGeometry>
        </mxCell>
        <mxCell id="1Ev_Z0uIvsRZ40nr7bww-75" style="edgeStyle=orthogonalEdgeStyle;rounded=0;orthogonalLoop=1;jettySize=auto;html=1;entryX=0.497;entryY=0.046;entryDx=0;entryDy=0;entryPerimeter=0;" edge="1" parent="1Ev_Z0uIvsRZ40nr7bww-76" source="1Ev_Z0uIvsRZ40nr7bww-57" target="1Ev_Z0uIvsRZ40nr7bww-64">
          <mxGeometry relative="1" as="geometry" />
        </mxCell>
        <mxCell id="1Ev_Z0uIvsRZ40nr7bww-77" value="" style="group;strokeColor=none;" vertex="1" connectable="0" parent="1">
          <mxGeometry x="474.23" y="570" width="159.77" height="160" as="geometry" />
        </mxCell>
        <mxCell id="1Ev_Z0uIvsRZ40nr7bww-78" value="" style="rounded=0;whiteSpace=wrap;html=1;" vertex="1" parent="1Ev_Z0uIvsRZ40nr7bww-77">
          <mxGeometry y="40" width="159.77" height="120" as="geometry" />
        </mxCell>
        <mxCell id="1Ev_Z0uIvsRZ40nr7bww-79" value="&lt;h4&gt;PRODUCT SERVICE&lt;/h4&gt;" style="text;html=1;align=center;verticalAlign=middle;whiteSpace=wrap;rounded=0;" vertex="1" parent="1Ev_Z0uIvsRZ40nr7bww-77">
          <mxGeometry width="159.77" height="40" as="geometry" />
        </mxCell>
        <mxCell id="1Ev_Z0uIvsRZ40nr7bww-80" value="" style="aspect=fixed;sketch=0;html=1;dashed=0;whitespace=wrap;verticalLabelPosition=bottom;verticalAlign=top;fillColor=#2875E2;strokeColor=#ffffff;points=[[0.005,0.63,0],[0.1,0.2,0],[0.9,0.2,0],[0.5,0,0],[0.995,0.63,0],[0.72,0.99,0],[0.5,1,0],[0.28,0.99,0]];shape=mxgraph.kubernetes.icon2;prIcon=api" vertex="1" parent="1Ev_Z0uIvsRZ40nr7bww-77">
          <mxGeometry x="9.506314999999981" y="95.60000000000002" width="35.504444444444445" height="34.084266666666664" as="geometry" />
        </mxCell>
        <mxCell id="1Ev_Z0uIvsRZ40nr7bww-81" value="" style="image;sketch=0;aspect=fixed;html=1;points=[];align=center;fontSize=12;image=img/lib/mscae/Cache_Redis_Product.svg;" vertex="1" parent="1Ev_Z0uIvsRZ40nr7bww-77">
          <mxGeometry x="62.132777777777775" y="46" width="35.92162166666667" height="30.17877777777778" as="geometry" />
        </mxCell>
        <mxCell id="1Ev_Z0uIvsRZ40nr7bww-82" value="&lt;font style=&quot;font-size: 8px;&quot;&gt;API&lt;/font&gt;" style="text;html=1;align=center;verticalAlign=middle;whiteSpace=wrap;rounded=0;" vertex="1" parent="1Ev_Z0uIvsRZ40nr7bww-77">
          <mxGeometry x="9.506314999999981" y="134" width="35.504444444444445" height="14" as="geometry" />
        </mxCell>
        <mxCell id="1Ev_Z0uIvsRZ40nr7bww-83" value="&lt;font style=&quot;font-size: 8px;&quot;&gt;REDIS&lt;/font&gt;" style="text;html=1;align=center;verticalAlign=middle;whiteSpace=wrap;rounded=0;" vertex="1" parent="1Ev_Z0uIvsRZ40nr7bww-77">
          <mxGeometry x="62.132777777777775" y="80" width="35.504444444444445" height="20" as="geometry" />
        </mxCell>
        <mxCell id="1Ev_Z0uIvsRZ40nr7bww-84" value="" style="group" vertex="1" connectable="0" parent="1Ev_Z0uIvsRZ40nr7bww-77">
          <mxGeometry x="111.839" y="98" width="35.504444444444445" height="40" as="geometry" />
        </mxCell>
        <mxCell id="1Ev_Z0uIvsRZ40nr7bww-85" value="" style="group" vertex="1" connectable="0" parent="1Ev_Z0uIvsRZ40nr7bww-84">
          <mxGeometry y="-2" width="35.504444444444445" height="40" as="geometry" />
        </mxCell>
        <mxCell id="1Ev_Z0uIvsRZ40nr7bww-86" value="" style="ellipse;whiteSpace=wrap;html=1;aspect=fixed;" vertex="1" parent="1Ev_Z0uIvsRZ40nr7bww-85">
          <mxGeometry width="35.504444444444445" height="35.504444444444445" as="geometry" />
        </mxCell>
        <mxCell id="1Ev_Z0uIvsRZ40nr7bww-87" value="" style="shape=datastore;whiteSpace=wrap;html=1;" vertex="1" parent="1Ev_Z0uIvsRZ40nr7bww-85">
          <mxGeometry x="19.08363888888889" y="21" width="8.876111111111111" height="15" as="geometry" />
        </mxCell>
        <mxCell id="1Ev_Z0uIvsRZ40nr7bww-88" value="" style="shape=datastore;whiteSpace=wrap;html=1;" vertex="1" parent="1Ev_Z0uIvsRZ40nr7bww-85">
          <mxGeometry x="7.544694444444445" y="4" width="8.876111111111111" height="15" as="geometry" />
        </mxCell>
        <mxCell id="1Ev_Z0uIvsRZ40nr7bww-89" style="edgeStyle=orthogonalEdgeStyle;rounded=0;orthogonalLoop=1;jettySize=auto;html=1;entryX=0.019;entryY=0.581;entryDx=0;entryDy=0;entryPerimeter=0;strokeWidth=0.5;" edge="1" parent="1Ev_Z0uIvsRZ40nr7bww-85" source="1Ev_Z0uIvsRZ40nr7bww-88" target="1Ev_Z0uIvsRZ40nr7bww-87">
          <mxGeometry relative="1" as="geometry">
            <Array as="points">
              <mxPoint x="9.319916666666668" y="29.5" />
            </Array>
          </mxGeometry>
        </mxCell>
        <mxCell id="1Ev_Z0uIvsRZ40nr7bww-90" style="edgeStyle=orthogonalEdgeStyle;rounded=0;orthogonalLoop=1;jettySize=auto;html=1;entryX=0.963;entryY=0.579;entryDx=0;entryDy=0;entryPerimeter=0;strokeWidth=0.5;" edge="1" parent="1Ev_Z0uIvsRZ40nr7bww-85" source="1Ev_Z0uIvsRZ40nr7bww-87" target="1Ev_Z0uIvsRZ40nr7bww-88">
          <mxGeometry relative="1" as="geometry">
            <Array as="points">
              <mxPoint x="23.521694444444446" y="12.5" />
            </Array>
          </mxGeometry>
        </mxCell>
        <mxCell id="1Ev_Z0uIvsRZ40nr7bww-91" value="&lt;font style=&quot;font-size: 8px;&quot;&gt;DATABASE&lt;/font&gt;" style="text;html=1;align=center;verticalAlign=middle;whiteSpace=wrap;rounded=0;" vertex="1" parent="1Ev_Z0uIvsRZ40nr7bww-77">
          <mxGeometry x="107.40094444444445" y="138" width="44.38055555555556" height="10" as="geometry" />
        </mxCell>
        <mxCell id="1Ev_Z0uIvsRZ40nr7bww-92" style="edgeStyle=orthogonalEdgeStyle;rounded=0;orthogonalLoop=1;jettySize=auto;html=1;entryX=0.001;entryY=0.544;entryDx=0;entryDy=0;entryPerimeter=0;" edge="1" parent="1Ev_Z0uIvsRZ40nr7bww-77" source="1Ev_Z0uIvsRZ40nr7bww-80" target="1Ev_Z0uIvsRZ40nr7bww-81">
          <mxGeometry relative="1" as="geometry">
            <Array as="points">
              <mxPoint x="27.515944444444443" y="76" />
              <mxPoint x="26.628333333333334" y="76" />
              <mxPoint x="26.628333333333334" y="65" />
            </Array>
          </mxGeometry>
        </mxCell>
        <mxCell id="1Ev_Z0uIvsRZ40nr7bww-93" style="edgeStyle=orthogonalEdgeStyle;rounded=0;orthogonalLoop=1;jettySize=auto;html=1;entryX=0.497;entryY=0.046;entryDx=0;entryDy=0;entryPerimeter=0;" edge="1" parent="1Ev_Z0uIvsRZ40nr7bww-77" source="1Ev_Z0uIvsRZ40nr7bww-81" target="1Ev_Z0uIvsRZ40nr7bww-86">
          <mxGeometry relative="1" as="geometry" />
        </mxCell>
        <mxCell id="1Ev_Z0uIvsRZ40nr7bww-132" value="" style="group" vertex="1" connectable="0" parent="1">
          <mxGeometry x="311.5" y="770" width="82.5" height="80" as="geometry" />
        </mxCell>
        <mxCell id="1Ev_Z0uIvsRZ40nr7bww-51" value="" style="rounded=0;whiteSpace=wrap;html=1;" vertex="1" parent="1Ev_Z0uIvsRZ40nr7bww-132">
          <mxGeometry width="82.5" height="80" as="geometry" />
        </mxCell>
        <mxCell id="1Ev_Z0uIvsRZ40nr7bww-52" value="" style="group" vertex="1" connectable="0" parent="1Ev_Z0uIvsRZ40nr7bww-132">
          <mxGeometry x="9.81081081081081" y="7.272727272727273" width="63.77027027027027" height="66.9090909090909" as="geometry" />
        </mxCell>
        <mxCell id="1Ev_Z0uIvsRZ40nr7bww-47" style="edgeStyle=orthogonalEdgeStyle;rounded=0;orthogonalLoop=1;jettySize=auto;html=1;" edge="1" parent="1Ev_Z0uIvsRZ40nr7bww-52" source="1Ev_Z0uIvsRZ40nr7bww-44" target="1Ev_Z0uIvsRZ40nr7bww-45">
          <mxGeometry relative="1" as="geometry">
            <Array as="points">
              <mxPoint x="12.809133327361707" y="54.02709419960094" />
            </Array>
          </mxGeometry>
        </mxCell>
        <mxCell id="1Ev_Z0uIvsRZ40nr7bww-44" value="" style="sketch=0;pointerEvents=1;shadow=0;dashed=0;html=1;strokeColor=none;fillColor=#505050;labelPosition=center;verticalLabelPosition=bottom;verticalAlign=top;outlineConnect=0;align=center;shape=mxgraph.office.servers.reverse_proxy;" vertex="1" parent="1Ev_Z0uIvsRZ40nr7bww-52">
          <mxGeometry width="38.42739998208512" height="41.14509749011095" as="geometry" />
        </mxCell>
        <mxCell id="1Ev_Z0uIvsRZ40nr7bww-48" style="edgeStyle=orthogonalEdgeStyle;rounded=0;orthogonalLoop=1;jettySize=auto;html=1;entryX=0.833;entryY=0.499;entryDx=0;entryDy=0;entryPerimeter=0;" edge="1" parent="1Ev_Z0uIvsRZ40nr7bww-52">
          <mxGeometry relative="1" as="geometry">
            <mxPoint x="52.24205027564473" y="41.14509749011096" as="sourcePoint" />
            <mxPoint x="25.605457521395994" y="20.531403647565362" as="targetPoint" />
            <Array as="points">
              <mxPoint x="52.517446642183" y="20.53390275492702" />
            </Array>
          </mxGeometry>
        </mxCell>
        <mxCell id="1Ev_Z0uIvsRZ40nr7bww-45" value="" style="sketch=0;pointerEvents=1;shadow=0;dashed=0;html=1;strokeColor=none;fillColor=#505050;labelPosition=center;verticalLabelPosition=bottom;verticalAlign=top;outlineConnect=0;align=center;shape=mxgraph.office.servers.reverse_proxy;" vertex="1" parent="1Ev_Z0uIvsRZ40nr7bww-52">
          <mxGeometry x="39.7083133148213" y="41.14509749011096" width="24.061956955448967" height="25.763993418979933" as="geometry" />
        </mxCell>
        <mxCell id="1Ev_Z0uIvsRZ40nr7bww-157" style="edgeStyle=orthogonalEdgeStyle;rounded=0;orthogonalLoop=1;jettySize=auto;html=1;exitX=1;exitY=0.5;exitDx=0;exitDy=0;entryX=0;entryY=0.5;entryDx=0;entryDy=0;" edge="1" parent="1" source="1Ev_Z0uIvsRZ40nr7bww-19" target="1Ev_Z0uIvsRZ40nr7bww-51">
          <mxGeometry relative="1" as="geometry" />
        </mxCell>
        <mxCell id="1Ev_Z0uIvsRZ40nr7bww-158" style="edgeStyle=orthogonalEdgeStyle;rounded=0;orthogonalLoop=1;jettySize=auto;html=1;exitX=0;exitY=0.5;exitDx=0;exitDy=0;entryX=1;entryY=0.5;entryDx=0;entryDy=0;" edge="1" parent="1" source="1Ev_Z0uIvsRZ40nr7bww-51" target="1Ev_Z0uIvsRZ40nr7bww-19">
          <mxGeometry relative="1" as="geometry" />
        </mxCell>
        <mxCell id="1Ev_Z0uIvsRZ40nr7bww-111" value="" style="group" vertex="1" connectable="0" parent="1">
          <mxGeometry x="474.23" y="1050" width="162.5" height="160" as="geometry" />
        </mxCell>
        <mxCell id="1Ev_Z0uIvsRZ40nr7bww-112" value="" style="rounded=0;whiteSpace=wrap;html=1;" vertex="1" parent="1Ev_Z0uIvsRZ40nr7bww-111">
          <mxGeometry y="40" width="162.5" height="120" as="geometry" />
        </mxCell>
        <mxCell id="1Ev_Z0uIvsRZ40nr7bww-113" value="&lt;h4&gt;TRANSACTION SERVICE&lt;/h4&gt;" style="text;html=1;align=center;verticalAlign=middle;whiteSpace=wrap;rounded=0;" vertex="1" parent="1Ev_Z0uIvsRZ40nr7bww-111">
          <mxGeometry width="162.5" height="40" as="geometry" />
        </mxCell>
        <mxCell id="1Ev_Z0uIvsRZ40nr7bww-114" value="" style="aspect=fixed;sketch=0;html=1;dashed=0;whitespace=wrap;verticalLabelPosition=bottom;verticalAlign=top;fillColor=#2875E2;strokeColor=#ffffff;points=[[0.005,0.63,0],[0.1,0.2,0],[0.9,0.2,0],[0.5,0,0],[0.995,0.63,0],[0.72,0.99,0],[0.5,1,0],[0.28,0.99,0]];shape=mxgraph.kubernetes.icon2;prIcon=api" vertex="1" parent="1Ev_Z0uIvsRZ40nr7bww-111">
          <mxGeometry x="9.668749999999982" y="95.60000000000002" width="36.111111111111114" height="34.666666666666664" as="geometry" />
        </mxCell>
        <mxCell id="1Ev_Z0uIvsRZ40nr7bww-115" value="" style="image;sketch=0;aspect=fixed;html=1;points=[];align=center;fontSize=12;image=img/lib/mscae/Cache_Redis_Product.svg;" vertex="1" parent="1Ev_Z0uIvsRZ40nr7bww-111">
          <mxGeometry x="63.19444444444444" y="46" width="36.53541666666666" height="30.694444444444446" as="geometry" />
        </mxCell>
        <mxCell id="1Ev_Z0uIvsRZ40nr7bww-116" value="&lt;font style=&quot;font-size: 8px;&quot;&gt;API&lt;/font&gt;" style="text;html=1;align=center;verticalAlign=middle;whiteSpace=wrap;rounded=0;" vertex="1" parent="1Ev_Z0uIvsRZ40nr7bww-111">
          <mxGeometry x="9.668749999999982" y="134" width="36.111111111111114" height="14" as="geometry" />
        </mxCell>
        <mxCell id="1Ev_Z0uIvsRZ40nr7bww-117" value="&lt;font style=&quot;font-size: 8px;&quot;&gt;REDIS&lt;/font&gt;" style="text;html=1;align=center;verticalAlign=middle;whiteSpace=wrap;rounded=0;" vertex="1" parent="1Ev_Z0uIvsRZ40nr7bww-111">
          <mxGeometry x="63.19444444444444" y="80" width="36.111111111111114" height="20" as="geometry" />
        </mxCell>
        <mxCell id="1Ev_Z0uIvsRZ40nr7bww-118" value="" style="group" vertex="1" connectable="0" parent="1Ev_Z0uIvsRZ40nr7bww-111">
          <mxGeometry x="113.75" y="98" width="36.111111111111114" height="40" as="geometry" />
        </mxCell>
        <mxCell id="1Ev_Z0uIvsRZ40nr7bww-119" value="" style="group" vertex="1" connectable="0" parent="1Ev_Z0uIvsRZ40nr7bww-118">
          <mxGeometry y="-2" width="36.111111111111114" height="40" as="geometry" />
        </mxCell>
        <mxCell id="1Ev_Z0uIvsRZ40nr7bww-120" value="" style="ellipse;whiteSpace=wrap;html=1;aspect=fixed;" vertex="1" parent="1Ev_Z0uIvsRZ40nr7bww-119">
          <mxGeometry width="36.111111111111114" height="36.111111111111114" as="geometry" />
        </mxCell>
        <mxCell id="1Ev_Z0uIvsRZ40nr7bww-121" value="" style="shape=datastore;whiteSpace=wrap;html=1;" vertex="1" parent="1Ev_Z0uIvsRZ40nr7bww-119">
          <mxGeometry x="19.409722222222225" y="21" width="9.027777777777779" height="15" as="geometry" />
        </mxCell>
        <mxCell id="1Ev_Z0uIvsRZ40nr7bww-122" value="" style="shape=datastore;whiteSpace=wrap;html=1;" vertex="1" parent="1Ev_Z0uIvsRZ40nr7bww-119">
          <mxGeometry x="7.6736111111111125" y="4" width="9.027777777777779" height="15" as="geometry" />
        </mxCell>
        <mxCell id="1Ev_Z0uIvsRZ40nr7bww-123" style="edgeStyle=orthogonalEdgeStyle;rounded=0;orthogonalLoop=1;jettySize=auto;html=1;entryX=0.019;entryY=0.581;entryDx=0;entryDy=0;entryPerimeter=0;strokeWidth=0.5;" edge="1" parent="1Ev_Z0uIvsRZ40nr7bww-119" source="1Ev_Z0uIvsRZ40nr7bww-122" target="1Ev_Z0uIvsRZ40nr7bww-121">
          <mxGeometry relative="1" as="geometry">
            <Array as="points">
              <mxPoint x="9.479166666666668" y="29.5" />
            </Array>
          </mxGeometry>
        </mxCell>
        <mxCell id="1Ev_Z0uIvsRZ40nr7bww-124" style="edgeStyle=orthogonalEdgeStyle;rounded=0;orthogonalLoop=1;jettySize=auto;html=1;entryX=0.963;entryY=0.579;entryDx=0;entryDy=0;entryPerimeter=0;strokeWidth=0.5;" edge="1" parent="1Ev_Z0uIvsRZ40nr7bww-119" source="1Ev_Z0uIvsRZ40nr7bww-121" target="1Ev_Z0uIvsRZ40nr7bww-122">
          <mxGeometry relative="1" as="geometry">
            <Array as="points">
              <mxPoint x="23.923611111111114" y="12.5" />
            </Array>
          </mxGeometry>
        </mxCell>
        <mxCell id="1Ev_Z0uIvsRZ40nr7bww-125" value="&lt;font style=&quot;font-size: 8px;&quot;&gt;DATABASE&lt;/font&gt;" style="text;html=1;align=center;verticalAlign=middle;whiteSpace=wrap;rounded=0;" vertex="1" parent="1Ev_Z0uIvsRZ40nr7bww-111">
          <mxGeometry x="109.23611111111111" y="138" width="45.13888888888889" height="10" as="geometry" />
        </mxCell>
        <mxCell id="1Ev_Z0uIvsRZ40nr7bww-126" style="edgeStyle=orthogonalEdgeStyle;rounded=0;orthogonalLoop=1;jettySize=auto;html=1;entryX=0.001;entryY=0.544;entryDx=0;entryDy=0;entryPerimeter=0;" edge="1" parent="1Ev_Z0uIvsRZ40nr7bww-111" source="1Ev_Z0uIvsRZ40nr7bww-114" target="1Ev_Z0uIvsRZ40nr7bww-115">
          <mxGeometry relative="1" as="geometry">
            <Array as="points">
              <mxPoint x="27.98611111111111" y="76" />
              <mxPoint x="27.083333333333332" y="76" />
              <mxPoint x="27.083333333333332" y="65" />
            </Array>
          </mxGeometry>
        </mxCell>
        <mxCell id="1Ev_Z0uIvsRZ40nr7bww-127" style="edgeStyle=orthogonalEdgeStyle;rounded=0;orthogonalLoop=1;jettySize=auto;html=1;entryX=0.497;entryY=0.046;entryDx=0;entryDy=0;entryPerimeter=0;" edge="1" parent="1Ev_Z0uIvsRZ40nr7bww-111" source="1Ev_Z0uIvsRZ40nr7bww-115" target="1Ev_Z0uIvsRZ40nr7bww-120">
          <mxGeometry relative="1" as="geometry" />
        </mxCell>
        <mxCell id="1Ev_Z0uIvsRZ40nr7bww-165" value="" style="group" vertex="1" connectable="0" parent="1">
          <mxGeometry x="474" y="890" width="160" height="160" as="geometry" />
        </mxCell>
        <mxCell id="1Ev_Z0uIvsRZ40nr7bww-95" value="" style="rounded=0;whiteSpace=wrap;html=1;" vertex="1" parent="1Ev_Z0uIvsRZ40nr7bww-165">
          <mxGeometry y="40" width="159.7958164567497" height="120" as="geometry" />
        </mxCell>
        <mxCell id="1Ev_Z0uIvsRZ40nr7bww-97" value="" style="aspect=fixed;sketch=0;html=1;dashed=0;whitespace=wrap;verticalLabelPosition=bottom;verticalAlign=top;fillColor=#2875E2;strokeColor=#ffffff;points=[[0.005,0.63,0],[0.1,0.2,0],[0.9,0.2,0],[0.5,0,0],[0.995,0.63,0],[0.72,0.99,0],[0.5,1,0],[0.28,0.99,0]];shape=mxgraph.kubernetes.icon2;prIcon=api" vertex="1" parent="1Ev_Z0uIvsRZ40nr7bww-165">
          <mxGeometry x="9.50785107917659" y="95.60000000000002" width="35.510181434833264" height="34.089774177439935" as="geometry" />
        </mxCell>
        <mxCell id="1Ev_Z0uIvsRZ40nr7bww-98" value="" style="image;sketch=0;aspect=fixed;html=1;points=[];align=center;fontSize=12;image=img/lib/mscae/Cache_Redis_Product.svg;" vertex="1" parent="1Ev_Z0uIvsRZ40nr7bww-165">
          <mxGeometry x="62.14281751095822" y="46" width="35.927426066692554" height="30.183654219608275" as="geometry" />
        </mxCell>
        <mxCell id="1Ev_Z0uIvsRZ40nr7bww-99" value="&lt;font style=&quot;font-size: 8px;&quot;&gt;API&lt;/font&gt;" style="text;html=1;align=center;verticalAlign=middle;whiteSpace=wrap;rounded=0;" vertex="1" parent="1Ev_Z0uIvsRZ40nr7bww-165">
          <mxGeometry x="9.50785107917659" y="134" width="35.510181434833264" height="14" as="geometry" />
        </mxCell>
        <mxCell id="1Ev_Z0uIvsRZ40nr7bww-100" value="&lt;font style=&quot;font-size: 8px;&quot;&gt;REDIS&lt;/font&gt;" style="text;html=1;align=center;verticalAlign=middle;whiteSpace=wrap;rounded=0;" vertex="1" parent="1Ev_Z0uIvsRZ40nr7bww-165">
          <mxGeometry x="62.14281751095822" y="80" width="35.510181434833264" height="20" as="geometry" />
        </mxCell>
        <mxCell id="1Ev_Z0uIvsRZ40nr7bww-101" value="" style="group" vertex="1" connectable="0" parent="1Ev_Z0uIvsRZ40nr7bww-165">
          <mxGeometry x="111.85707151972478" y="98" width="35.510181434833264" height="40" as="geometry" />
        </mxCell>
        <mxCell id="1Ev_Z0uIvsRZ40nr7bww-102" value="" style="group" vertex="1" connectable="0" parent="1Ev_Z0uIvsRZ40nr7bww-101">
          <mxGeometry y="-2" width="35.510181434833264" height="40" as="geometry" />
        </mxCell>
        <mxCell id="1Ev_Z0uIvsRZ40nr7bww-103" value="" style="ellipse;whiteSpace=wrap;html=1;aspect=fixed;" vertex="1" parent="1Ev_Z0uIvsRZ40nr7bww-102">
          <mxGeometry width="35.510181434833264" height="35.510181434833264" as="geometry" />
        </mxCell>
        <mxCell id="1Ev_Z0uIvsRZ40nr7bww-104" value="" style="shape=datastore;whiteSpace=wrap;html=1;" vertex="1" parent="1Ev_Z0uIvsRZ40nr7bww-102">
          <mxGeometry x="19.08672252122288" y="21" width="8.877545358708316" height="15" as="geometry" />
        </mxCell>
        <mxCell id="1Ev_Z0uIvsRZ40nr7bww-105" value="" style="shape=datastore;whiteSpace=wrap;html=1;" vertex="1" parent="1Ev_Z0uIvsRZ40nr7bww-102">
          <mxGeometry x="7.545913554902069" y="4" width="8.877545358708316" height="15" as="geometry" />
        </mxCell>
        <mxCell id="1Ev_Z0uIvsRZ40nr7bww-106" style="edgeStyle=orthogonalEdgeStyle;rounded=0;orthogonalLoop=1;jettySize=auto;html=1;entryX=0.019;entryY=0.581;entryDx=0;entryDy=0;entryPerimeter=0;strokeWidth=0.5;" edge="1" parent="1Ev_Z0uIvsRZ40nr7bww-102" source="1Ev_Z0uIvsRZ40nr7bww-105" target="1Ev_Z0uIvsRZ40nr7bww-104">
          <mxGeometry relative="1" as="geometry">
            <Array as="points">
              <mxPoint x="9.321422626643733" y="29.5" />
            </Array>
          </mxGeometry>
        </mxCell>
        <mxCell id="1Ev_Z0uIvsRZ40nr7bww-107" style="edgeStyle=orthogonalEdgeStyle;rounded=0;orthogonalLoop=1;jettySize=auto;html=1;entryX=0.963;entryY=0.579;entryDx=0;entryDy=0;entryPerimeter=0;strokeWidth=0.5;" edge="1" parent="1Ev_Z0uIvsRZ40nr7bww-102" source="1Ev_Z0uIvsRZ40nr7bww-104" target="1Ev_Z0uIvsRZ40nr7bww-105">
          <mxGeometry relative="1" as="geometry">
            <Array as="points">
              <mxPoint x="23.525495200577037" y="12.5" />
            </Array>
          </mxGeometry>
        </mxCell>
        <mxCell id="1Ev_Z0uIvsRZ40nr7bww-108" value="&lt;font style=&quot;font-size: 8px;&quot;&gt;DATABASE&lt;/font&gt;" style="text;html=1;align=center;verticalAlign=middle;whiteSpace=wrap;rounded=0;" vertex="1" parent="1Ev_Z0uIvsRZ40nr7bww-165">
          <mxGeometry x="107.41829884037062" y="138" width="44.38772679354158" height="10" as="geometry" />
        </mxCell>
        <mxCell id="1Ev_Z0uIvsRZ40nr7bww-109" style="edgeStyle=orthogonalEdgeStyle;rounded=0;orthogonalLoop=1;jettySize=auto;html=1;entryX=0.001;entryY=0.544;entryDx=0;entryDy=0;entryPerimeter=0;" edge="1" parent="1Ev_Z0uIvsRZ40nr7bww-165" source="1Ev_Z0uIvsRZ40nr7bww-97" target="1Ev_Z0uIvsRZ40nr7bww-98">
          <mxGeometry relative="1" as="geometry">
            <Array as="points">
              <mxPoint x="27.52039061199578" y="76" />
              <mxPoint x="26.63263607612495" y="76" />
              <mxPoint x="26.63263607612495" y="65" />
            </Array>
          </mxGeometry>
        </mxCell>
        <mxCell id="1Ev_Z0uIvsRZ40nr7bww-110" style="edgeStyle=orthogonalEdgeStyle;rounded=0;orthogonalLoop=1;jettySize=auto;html=1;entryX=0.497;entryY=0.046;entryDx=0;entryDy=0;entryPerimeter=0;" edge="1" parent="1Ev_Z0uIvsRZ40nr7bww-165" source="1Ev_Z0uIvsRZ40nr7bww-98" target="1Ev_Z0uIvsRZ40nr7bww-103">
          <mxGeometry relative="1" as="geometry" />
        </mxCell>
        <mxCell id="1Ev_Z0uIvsRZ40nr7bww-163" value="&lt;h4&gt;CART SERVICE&lt;/h4&gt;" style="text;html=1;align=center;verticalAlign=middle;whiteSpace=wrap;rounded=0;" vertex="1" parent="1Ev_Z0uIvsRZ40nr7bww-165">
          <mxGeometry x="0.20418354325030744" width="159.7958164567497" height="40" as="geometry" />
        </mxCell>
        <mxCell id="1Ev_Z0uIvsRZ40nr7bww-167" value="" style="group" vertex="1" connectable="0" parent="1">
          <mxGeometry x="474" y="730" width="160" height="160" as="geometry" />
        </mxCell>
        <mxCell id="1Ev_Z0uIvsRZ40nr7bww-201" style="edgeStyle=orthogonalEdgeStyle;rounded=0;orthogonalLoop=1;jettySize=auto;html=1;exitX=1;exitY=0.5;exitDx=0;exitDy=0;" edge="1" parent="1Ev_Z0uIvsRZ40nr7bww-167" source="1Ev_Z0uIvsRZ40nr7bww-168">
          <mxGeometry relative="1" as="geometry">
            <mxPoint x="240" y="80" as="targetPoint" />
          </mxGeometry>
        </mxCell>
        <mxCell id="1Ev_Z0uIvsRZ40nr7bww-168" value="" style="rounded=0;whiteSpace=wrap;html=1;" vertex="1" parent="1Ev_Z0uIvsRZ40nr7bww-167">
          <mxGeometry y="40" width="159.7958164567497" height="120" as="geometry" />
        </mxCell>
        <mxCell id="1Ev_Z0uIvsRZ40nr7bww-169" value="" style="aspect=fixed;sketch=0;html=1;dashed=0;whitespace=wrap;verticalLabelPosition=bottom;verticalAlign=top;fillColor=#2875E2;strokeColor=#ffffff;points=[[0.005,0.63,0],[0.1,0.2,0],[0.9,0.2,0],[0.5,0,0],[0.995,0.63,0],[0.72,0.99,0],[0.5,1,0],[0.28,0.99,0]];shape=mxgraph.kubernetes.icon2;prIcon=api" vertex="1" parent="1Ev_Z0uIvsRZ40nr7bww-167">
          <mxGeometry x="9.50785107917659" y="95.60000000000002" width="35.510181434833264" height="34.089774177439935" as="geometry" />
        </mxCell>
        <mxCell id="1Ev_Z0uIvsRZ40nr7bww-170" value="" style="image;sketch=0;aspect=fixed;html=1;points=[];align=center;fontSize=12;image=img/lib/mscae/Cache_Redis_Product.svg;" vertex="1" parent="1Ev_Z0uIvsRZ40nr7bww-167">
          <mxGeometry x="62.14281751095822" y="46" width="35.927426066692554" height="30.183654219608275" as="geometry" />
        </mxCell>
        <mxCell id="1Ev_Z0uIvsRZ40nr7bww-171" value="&lt;font style=&quot;font-size: 8px;&quot;&gt;API&lt;/font&gt;" style="text;html=1;align=center;verticalAlign=middle;whiteSpace=wrap;rounded=0;" vertex="1" parent="1Ev_Z0uIvsRZ40nr7bww-167">
          <mxGeometry x="9.50785107917659" y="134" width="35.510181434833264" height="14" as="geometry" />
        </mxCell>
        <mxCell id="1Ev_Z0uIvsRZ40nr7bww-172" value="&lt;font style=&quot;font-size: 8px;&quot;&gt;REDIS&lt;/font&gt;" style="text;html=1;align=center;verticalAlign=middle;whiteSpace=wrap;rounded=0;" vertex="1" parent="1Ev_Z0uIvsRZ40nr7bww-167">
          <mxGeometry x="62.14281751095822" y="80" width="35.510181434833264" height="20" as="geometry" />
        </mxCell>
        <mxCell id="1Ev_Z0uIvsRZ40nr7bww-173" value="" style="group" vertex="1" connectable="0" parent="1Ev_Z0uIvsRZ40nr7bww-167">
          <mxGeometry x="111.85707151972478" y="98" width="35.510181434833264" height="40" as="geometry" />
        </mxCell>
        <mxCell id="1Ev_Z0uIvsRZ40nr7bww-174" value="" style="group" vertex="1" connectable="0" parent="1Ev_Z0uIvsRZ40nr7bww-173">
          <mxGeometry y="-2" width="35.510181434833264" height="40" as="geometry" />
        </mxCell>
        <mxCell id="1Ev_Z0uIvsRZ40nr7bww-175" value="" style="ellipse;whiteSpace=wrap;html=1;aspect=fixed;" vertex="1" parent="1Ev_Z0uIvsRZ40nr7bww-174">
          <mxGeometry width="35.510181434833264" height="35.510181434833264" as="geometry" />
        </mxCell>
        <mxCell id="1Ev_Z0uIvsRZ40nr7bww-176" value="" style="shape=datastore;whiteSpace=wrap;html=1;" vertex="1" parent="1Ev_Z0uIvsRZ40nr7bww-174">
          <mxGeometry x="19.08672252122288" y="21" width="8.877545358708316" height="15" as="geometry" />
        </mxCell>
        <mxCell id="1Ev_Z0uIvsRZ40nr7bww-177" value="" style="shape=datastore;whiteSpace=wrap;html=1;" vertex="1" parent="1Ev_Z0uIvsRZ40nr7bww-174">
          <mxGeometry x="7.545913554902069" y="4" width="8.877545358708316" height="15" as="geometry" />
        </mxCell>
        <mxCell id="1Ev_Z0uIvsRZ40nr7bww-178" style="edgeStyle=orthogonalEdgeStyle;rounded=0;orthogonalLoop=1;jettySize=auto;html=1;entryX=0.019;entryY=0.581;entryDx=0;entryDy=0;entryPerimeter=0;strokeWidth=0.5;" edge="1" parent="1Ev_Z0uIvsRZ40nr7bww-174" source="1Ev_Z0uIvsRZ40nr7bww-177" target="1Ev_Z0uIvsRZ40nr7bww-176">
          <mxGeometry relative="1" as="geometry">
            <Array as="points">
              <mxPoint x="9.321422626643733" y="29.5" />
            </Array>
          </mxGeometry>
        </mxCell>
        <mxCell id="1Ev_Z0uIvsRZ40nr7bww-179" style="edgeStyle=orthogonalEdgeStyle;rounded=0;orthogonalLoop=1;jettySize=auto;html=1;entryX=0.963;entryY=0.579;entryDx=0;entryDy=0;entryPerimeter=0;strokeWidth=0.5;" edge="1" parent="1Ev_Z0uIvsRZ40nr7bww-174" source="1Ev_Z0uIvsRZ40nr7bww-176" target="1Ev_Z0uIvsRZ40nr7bww-177">
          <mxGeometry relative="1" as="geometry">
            <Array as="points">
              <mxPoint x="23.525495200577037" y="12.5" />
            </Array>
          </mxGeometry>
        </mxCell>
        <mxCell id="1Ev_Z0uIvsRZ40nr7bww-180" value="&lt;font style=&quot;font-size: 8px;&quot;&gt;DATABASE&lt;/font&gt;" style="text;html=1;align=center;verticalAlign=middle;whiteSpace=wrap;rounded=0;" vertex="1" parent="1Ev_Z0uIvsRZ40nr7bww-167">
          <mxGeometry x="107.41829884037062" y="138" width="44.38772679354158" height="10" as="geometry" />
        </mxCell>
        <mxCell id="1Ev_Z0uIvsRZ40nr7bww-181" style="edgeStyle=orthogonalEdgeStyle;rounded=0;orthogonalLoop=1;jettySize=auto;html=1;entryX=0.001;entryY=0.544;entryDx=0;entryDy=0;entryPerimeter=0;" edge="1" parent="1Ev_Z0uIvsRZ40nr7bww-167" source="1Ev_Z0uIvsRZ40nr7bww-169" target="1Ev_Z0uIvsRZ40nr7bww-170">
          <mxGeometry relative="1" as="geometry">
            <Array as="points">
              <mxPoint x="27.52039061199578" y="76" />
              <mxPoint x="26.63263607612495" y="76" />
              <mxPoint x="26.63263607612495" y="65" />
            </Array>
          </mxGeometry>
        </mxCell>
        <mxCell id="1Ev_Z0uIvsRZ40nr7bww-182" style="edgeStyle=orthogonalEdgeStyle;rounded=0;orthogonalLoop=1;jettySize=auto;html=1;entryX=0.497;entryY=0.046;entryDx=0;entryDy=0;entryPerimeter=0;" edge="1" parent="1Ev_Z0uIvsRZ40nr7bww-167" source="1Ev_Z0uIvsRZ40nr7bww-170" target="1Ev_Z0uIvsRZ40nr7bww-175">
          <mxGeometry relative="1" as="geometry" />
        </mxCell>
        <mxCell id="1Ev_Z0uIvsRZ40nr7bww-183" value="&lt;h4&gt;AUTH SERVICE&lt;/h4&gt;" style="text;html=1;align=center;verticalAlign=middle;whiteSpace=wrap;rounded=0;" vertex="1" parent="1Ev_Z0uIvsRZ40nr7bww-167">
          <mxGeometry x="0.20418354325030744" width="159.7958164567497" height="40" as="geometry" />
        </mxCell>
        <mxCell id="1Ev_Z0uIvsRZ40nr7bww-197" style="edgeStyle=orthogonalEdgeStyle;rounded=0;orthogonalLoop=1;jettySize=auto;html=1;exitX=0.5;exitY=0;exitDx=0;exitDy=0;entryX=1;entryY=0.5;entryDx=0;entryDy=0;" edge="1" parent="1" source="1Ev_Z0uIvsRZ40nr7bww-137" target="1Ev_Z0uIvsRZ40nr7bww-53">
          <mxGeometry relative="1" as="geometry" />
        </mxCell>
        <mxCell id="1Ev_Z0uIvsRZ40nr7bww-198" style="edgeStyle=orthogonalEdgeStyle;rounded=0;orthogonalLoop=1;jettySize=auto;html=1;entryX=1;entryY=0.5;entryDx=0;entryDy=0;exitX=0.5;exitY=1;exitDx=0;exitDy=0;" edge="1" parent="1" source="1Ev_Z0uIvsRZ40nr7bww-212" target="1Ev_Z0uIvsRZ40nr7bww-112">
          <mxGeometry relative="1" as="geometry">
            <mxPoint x="844" y="950" as="sourcePoint" />
          </mxGeometry>
        </mxCell>
        <mxCell id="1Ev_Z0uIvsRZ40nr7bww-199" style="edgeStyle=orthogonalEdgeStyle;rounded=0;orthogonalLoop=1;jettySize=auto;html=1;exitX=1;exitY=0.5;exitDx=0;exitDy=0;entryX=0.5;entryY=1;entryDx=0;entryDy=0;" edge="1" parent="1" source="1Ev_Z0uIvsRZ40nr7bww-112" target="1Ev_Z0uIvsRZ40nr7bww-212">
          <mxGeometry relative="1" as="geometry">
            <mxPoint x="764" y="910" as="targetPoint" />
          </mxGeometry>
        </mxCell>
        <mxCell id="1Ev_Z0uIvsRZ40nr7bww-200" style="edgeStyle=orthogonalEdgeStyle;rounded=0;orthogonalLoop=1;jettySize=auto;html=1;exitX=0;exitY=0.5;exitDx=0;exitDy=0;entryX=1;entryY=0.5;entryDx=0;entryDy=0;" edge="1" parent="1" source="1Ev_Z0uIvsRZ40nr7bww-137" target="1Ev_Z0uIvsRZ40nr7bww-168">
          <mxGeometry relative="1" as="geometry" />
        </mxCell>
        <mxCell id="1Ev_Z0uIvsRZ40nr7bww-202" style="edgeStyle=orthogonalEdgeStyle;rounded=0;orthogonalLoop=1;jettySize=auto;html=1;exitX=0;exitY=0;exitDx=0;exitDy=0;entryX=1;entryY=0.5;entryDx=0;entryDy=0;" edge="1" parent="1" source="1Ev_Z0uIvsRZ40nr7bww-137" target="1Ev_Z0uIvsRZ40nr7bww-78">
          <mxGeometry relative="1" as="geometry" />
        </mxCell>
        <mxCell id="1Ev_Z0uIvsRZ40nr7bww-203" style="edgeStyle=orthogonalEdgeStyle;rounded=0;orthogonalLoop=1;jettySize=auto;html=1;exitX=1;exitY=0.5;exitDx=0;exitDy=0;entryX=0;entryY=0;entryDx=0;entryDy=0;" edge="1" parent="1" source="1Ev_Z0uIvsRZ40nr7bww-78" target="1Ev_Z0uIvsRZ40nr7bww-137">
          <mxGeometry relative="1" as="geometry" />
        </mxCell>
        <mxCell id="1Ev_Z0uIvsRZ40nr7bww-204" style="edgeStyle=orthogonalEdgeStyle;rounded=0;orthogonalLoop=1;jettySize=auto;html=1;exitX=0;exitY=1;exitDx=0;exitDy=0;entryX=1;entryY=0.5;entryDx=0;entryDy=0;" edge="1" parent="1" source="1Ev_Z0uIvsRZ40nr7bww-137" target="1Ev_Z0uIvsRZ40nr7bww-95">
          <mxGeometry relative="1" as="geometry" />
        </mxCell>
        <mxCell id="1Ev_Z0uIvsRZ40nr7bww-205" style="edgeStyle=orthogonalEdgeStyle;rounded=0;orthogonalLoop=1;jettySize=auto;html=1;exitX=1;exitY=0.5;exitDx=0;exitDy=0;entryX=0;entryY=1;entryDx=0;entryDy=0;" edge="1" parent="1" source="1Ev_Z0uIvsRZ40nr7bww-95" target="1Ev_Z0uIvsRZ40nr7bww-137">
          <mxGeometry relative="1" as="geometry" />
        </mxCell>
        <mxCell id="1Ev_Z0uIvsRZ40nr7bww-206" style="edgeStyle=orthogonalEdgeStyle;rounded=0;orthogonalLoop=1;jettySize=auto;html=1;exitX=0.5;exitY=0;exitDx=0;exitDy=0;entryX=0;entryY=0.5;entryDx=0;entryDy=0;" edge="1" parent="1" source="1Ev_Z0uIvsRZ40nr7bww-51" target="1Ev_Z0uIvsRZ40nr7bww-53">
          <mxGeometry relative="1" as="geometry" />
        </mxCell>
        <mxCell id="1Ev_Z0uIvsRZ40nr7bww-207" style="edgeStyle=orthogonalEdgeStyle;rounded=0;orthogonalLoop=1;jettySize=auto;html=1;exitX=0;exitY=0.5;exitDx=0;exitDy=0;entryX=0.5;entryY=0;entryDx=0;entryDy=0;" edge="1" parent="1" source="1Ev_Z0uIvsRZ40nr7bww-53" target="1Ev_Z0uIvsRZ40nr7bww-51">
          <mxGeometry relative="1" as="geometry" />
        </mxCell>
        <mxCell id="1Ev_Z0uIvsRZ40nr7bww-208" style="edgeStyle=orthogonalEdgeStyle;rounded=0;orthogonalLoop=1;jettySize=auto;html=1;entryX=0;entryY=0.5;entryDx=0;entryDy=0;exitX=1;exitY=0;exitDx=0;exitDy=0;" edge="1" parent="1" source="1Ev_Z0uIvsRZ40nr7bww-51" target="1Ev_Z0uIvsRZ40nr7bww-78">
          <mxGeometry relative="1" as="geometry">
            <mxPoint x="414" y="750" as="sourcePoint" />
          </mxGeometry>
        </mxCell>
        <mxCell id="1Ev_Z0uIvsRZ40nr7bww-210" style="edgeStyle=orthogonalEdgeStyle;rounded=0;orthogonalLoop=1;jettySize=auto;html=1;exitX=1;exitY=0.5;exitDx=0;exitDy=0;entryX=0;entryY=0.5;entryDx=0;entryDy=0;" edge="1" parent="1" source="1Ev_Z0uIvsRZ40nr7bww-51" target="1Ev_Z0uIvsRZ40nr7bww-168">
          <mxGeometry relative="1" as="geometry" />
        </mxCell>
        <mxCell id="1Ev_Z0uIvsRZ40nr7bww-211" style="edgeStyle=orthogonalEdgeStyle;rounded=0;orthogonalLoop=1;jettySize=auto;html=1;exitX=0;exitY=0.5;exitDx=0;exitDy=0;entryX=1;entryY=0.5;entryDx=0;entryDy=0;" edge="1" parent="1" source="1Ev_Z0uIvsRZ40nr7bww-168" target="1Ev_Z0uIvsRZ40nr7bww-51">
          <mxGeometry relative="1" as="geometry" />
        </mxCell>
        <mxCell id="1Ev_Z0uIvsRZ40nr7bww-212" value="&lt;font style=&quot;font-size: 10px;&quot;&gt;KAFKA&lt;/font&gt;" style="text;html=1;align=center;verticalAlign=middle;whiteSpace=wrap;rounded=0;" vertex="1" parent="1">
          <mxGeometry x="711.5" y="850" width="82.5" height="30" as="geometry" />
        </mxCell>
        <mxCell id="1Ev_Z0uIvsRZ40nr7bww-214" style="edgeStyle=orthogonalEdgeStyle;rounded=0;orthogonalLoop=1;jettySize=auto;html=1;exitX=0;exitY=0.5;exitDx=0;exitDy=0;entryX=1;entryY=0;entryDx=0;entryDy=0;" edge="1" parent="1" source="1Ev_Z0uIvsRZ40nr7bww-95" target="1Ev_Z0uIvsRZ40nr7bww-23">
          <mxGeometry relative="1" as="geometry">
            <Array as="points">
              <mxPoint x="394" y="990" />
            </Array>
          </mxGeometry>
        </mxCell>
        <mxCell id="1Ev_Z0uIvsRZ40nr7bww-216" style="edgeStyle=orthogonalEdgeStyle;rounded=0;orthogonalLoop=1;jettySize=auto;html=1;exitX=0;exitY=0.5;exitDx=0;exitDy=0;entryX=0.5;entryY=1;entryDx=0;entryDy=0;" edge="1" parent="1" source="1Ev_Z0uIvsRZ40nr7bww-112" target="1Ev_Z0uIvsRZ40nr7bww-23">
          <mxGeometry relative="1" as="geometry" />
        </mxCell>
        <mxCell id="1Ev_Z0uIvsRZ40nr7bww-209" style="edgeStyle=orthogonalEdgeStyle;rounded=0;orthogonalLoop=1;jettySize=auto;html=1;exitX=0;exitY=0.5;exitDx=0;exitDy=0;entryX=1;entryY=0;entryDx=0;entryDy=0;" edge="1" parent="1" source="1Ev_Z0uIvsRZ40nr7bww-78" target="1Ev_Z0uIvsRZ40nr7bww-51">
          <mxGeometry relative="1" as="geometry">
            <mxPoint x="394" y="780" as="targetPoint" />
          </mxGeometry>
        </mxCell>
        <mxCell id="1Ev_Z0uIvsRZ40nr7bww-250" style="edgeStyle=orthogonalEdgeStyle;rounded=0;orthogonalLoop=1;jettySize=auto;html=1;exitX=0.5;exitY=1;exitDx=0;exitDy=0;" edge="1" parent="1">
          <mxGeometry relative="1" as="geometry">
            <mxPoint x="920" y="860" as="sourcePoint" />
            <mxPoint x="920" y="860" as="targetPoint" />
          </mxGeometry>
        </mxCell>
        <mxCell id="1Ev_Z0uIvsRZ40nr7bww-256" value="" style="group" vertex="1" connectable="0" parent="1">
          <mxGeometry x="834" y="760" width="112.06" height="110" as="geometry" />
        </mxCell>
        <mxCell id="1Ev_Z0uIvsRZ40nr7bww-252" value="" style="rounded=0;whiteSpace=wrap;html=1;" vertex="1" parent="1Ev_Z0uIvsRZ40nr7bww-256">
          <mxGeometry width="109.99754601226995" height="110" as="geometry" />
        </mxCell>
        <mxCell id="1Ev_Z0uIvsRZ40nr7bww-255" value="" style="group" vertex="1" connectable="0" parent="1Ev_Z0uIvsRZ40nr7bww-256">
          <mxGeometry x="8.937300613496934" y="12.375" width="103.12269938650307" height="82.5" as="geometry" />
        </mxCell>
        <mxCell id="1Ev_Z0uIvsRZ40nr7bww-226" value="" style="group" vertex="1" connectable="0" parent="1Ev_Z0uIvsRZ40nr7bww-255">
          <mxGeometry x="27.499386503067488" width="41.24907975460123" height="41.25" as="geometry" />
        </mxCell>
        <mxCell id="1Ev_Z0uIvsRZ40nr7bww-225" value="" style="ellipse;whiteSpace=wrap;html=1;aspect=fixed;" vertex="1" parent="1Ev_Z0uIvsRZ40nr7bww-226">
          <mxGeometry width="41.24907975460123" height="41.24907975460123" as="geometry" />
        </mxCell>
        <mxCell id="1Ev_Z0uIvsRZ40nr7bww-224" value="" style="sketch=0;outlineConnect=0;fontColor=#232F3E;gradientColor=none;fillColor=#232F3D;strokeColor=none;dashed=0;verticalLabelPosition=bottom;verticalAlign=top;align=center;html=1;fontSize=12;fontStyle=0;aspect=fixed;pointerEvents=1;shape=mxgraph.aws4.logs;" vertex="1" parent="1Ev_Z0uIvsRZ40nr7bww-226">
          <mxGeometry x="11.766300000000026" y="8.5078125" width="17.711323619631905" height="24.233834355828222" as="geometry" />
        </mxCell>
        <mxCell id="1Ev_Z0uIvsRZ40nr7bww-232" value="" style="group" vertex="1" connectable="0" parent="1Ev_Z0uIvsRZ40nr7bww-255">
          <mxGeometry y="41.25" width="41.24907975460123" height="41.25" as="geometry" />
        </mxCell>
        <mxCell id="1Ev_Z0uIvsRZ40nr7bww-231" value="" style="ellipse;whiteSpace=wrap;html=1;aspect=fixed;" vertex="1" parent="1Ev_Z0uIvsRZ40nr7bww-232">
          <mxGeometry width="41.24907975460123" height="41.24907975460123" as="geometry" />
        </mxCell>
        <mxCell id="1Ev_Z0uIvsRZ40nr7bww-230" value="" style="sketch=0;outlineConnect=0;fontColor=#232F3E;gradientColor=none;fillColor=#232F3D;strokeColor=none;dashed=0;verticalLabelPosition=bottom;verticalAlign=top;align=center;html=1;fontSize=12;fontStyle=0;aspect=fixed;pointerEvents=1;shape=mxgraph.aws4.documents2;" vertex="1" parent="1Ev_Z0uIvsRZ40nr7bww-232">
          <mxGeometry x="9.997745705521465" y="8.25" width="21.258744478527607" height="24.74944785276074" as="geometry" />
        </mxCell>
        <mxCell id="1Ev_Z0uIvsRZ40nr7bww-233" value="" style="group;rotation=90;" vertex="1" connectable="0" parent="1Ev_Z0uIvsRZ40nr7bww-255">
          <mxGeometry x="61.873619631901846" y="41.25" width="41.24907975460123" height="41.25" as="geometry" />
        </mxCell>
        <mxCell id="1Ev_Z0uIvsRZ40nr7bww-254" value="" style="group" vertex="1" connectable="0" parent="1Ev_Z0uIvsRZ40nr7bww-233">
          <mxGeometry x="-10.312269938650308" width="41.24907975460123" height="41.25" as="geometry" />
        </mxCell>
        <mxCell id="1Ev_Z0uIvsRZ40nr7bww-227" value="" style="ellipse;whiteSpace=wrap;html=1;aspect=fixed;" vertex="1" parent="1Ev_Z0uIvsRZ40nr7bww-254">
          <mxGeometry width="41.24907975460123" height="41.24907975460123" as="geometry" />
        </mxCell>
        <mxCell id="1Ev_Z0uIvsRZ40nr7bww-223" value="" style="sketch=0;outlineConnect=0;fontColor=#232F3E;gradientColor=none;fillColor=#232F3D;strokeColor=none;dashed=0;verticalLabelPosition=bottom;verticalAlign=top;align=center;html=1;fontSize=12;fontStyle=0;aspect=fixed;pointerEvents=1;shape=mxgraph.aws4.metrics;" vertex="1" parent="1Ev_Z0uIvsRZ40nr7bww-254">
          <mxGeometry x="9.296511349693239" y="10.3125" width="22.656057055214724" height="20.624539877300617" as="geometry" />
        </mxCell>
        <mxCell id="1Ev_Z0uIvsRZ40nr7bww-257" style="edgeStyle=orthogonalEdgeStyle;rounded=0;orthogonalLoop=1;jettySize=auto;html=1;exitX=1;exitY=1;exitDx=0;exitDy=0;entryX=0.5;entryY=1;entryDx=0;entryDy=0;" edge="1" parent="1" source="1Ev_Z0uIvsRZ40nr7bww-112" target="1Ev_Z0uIvsRZ40nr7bww-252">
          <mxGeometry relative="1" as="geometry">
            <Array as="points">
              <mxPoint x="889" y="1210" />
            </Array>
          </mxGeometry>
        </mxCell>
        <mxCell id="1Ev_Z0uIvsRZ40nr7bww-258" style="edgeStyle=orthogonalEdgeStyle;rounded=0;orthogonalLoop=1;jettySize=auto;html=1;exitX=1;exitY=1;exitDx=0;exitDy=0;entryX=0.5;entryY=0;entryDx=0;entryDy=0;" edge="1" parent="1" source="1Ev_Z0uIvsRZ40nr7bww-54" target="1Ev_Z0uIvsRZ40nr7bww-252">
          <mxGeometry relative="1" as="geometry">
            <Array as="points">
              <mxPoint x="889" y="450" />
            </Array>
          </mxGeometry>
        </mxCell>
        <mxCell id="1Ev_Z0uIvsRZ40nr7bww-259" style="edgeStyle=orthogonalEdgeStyle;rounded=0;orthogonalLoop=1;jettySize=auto;html=1;exitX=1;exitY=0;exitDx=0;exitDy=0;entryX=0;entryY=0;entryDx=0;entryDy=0;" edge="1" parent="1" source="1Ev_Z0uIvsRZ40nr7bww-78" target="1Ev_Z0uIvsRZ40nr7bww-252">
          <mxGeometry relative="1" as="geometry">
            <Array as="points">
              <mxPoint x="834" y="610" />
            </Array>
          </mxGeometry>
        </mxCell>
        <mxCell id="1Ev_Z0uIvsRZ40nr7bww-260" style="edgeStyle=orthogonalEdgeStyle;rounded=0;orthogonalLoop=1;jettySize=auto;html=1;exitX=1;exitY=1;exitDx=0;exitDy=0;entryX=0;entryY=1;entryDx=0;entryDy=0;" edge="1" parent="1" source="1Ev_Z0uIvsRZ40nr7bww-95" target="1Ev_Z0uIvsRZ40nr7bww-252">
          <mxGeometry relative="1" as="geometry">
            <Array as="points">
              <mxPoint x="834" y="1050" />
            </Array>
          </mxGeometry>
        </mxCell>
        <mxCell id="1Ev_Z0uIvsRZ40nr7bww-261" style="edgeStyle=orthogonalEdgeStyle;rounded=0;orthogonalLoop=1;jettySize=auto;html=1;exitX=1;exitY=0.5;exitDx=0;exitDy=0;entryX=0;entryY=0.5;entryDx=0;entryDy=0;" edge="1" parent="1" source="1Ev_Z0uIvsRZ40nr7bww-168" target="1Ev_Z0uIvsRZ40nr7bww-252">
          <mxGeometry relative="1" as="geometry" />
        </mxCell>
        <mxCell id="1Ev_Z0uIvsRZ40nr7bww-166" value="" style="group" vertex="1" connectable="0" parent="1">
          <mxGeometry x="714" y="772" width="80" height="78" as="geometry" />
        </mxCell>
        <mxCell id="1Ev_Z0uIvsRZ40nr7bww-137" value="" style="rounded=0;whiteSpace=wrap;html=1;" vertex="1" parent="1Ev_Z0uIvsRZ40nr7bww-166">
          <mxGeometry width="80" height="78" as="geometry" />
        </mxCell>
        <mxCell id="1Ev_Z0uIvsRZ40nr7bww-135" value="" style="points=[];aspect=fixed;html=1;align=center;shadow=0;dashed=0;fillColor=#FF6A00;strokeColor=none;shape=mxgraph.alibaba_cloud.kafka;" vertex="1" parent="1Ev_Z0uIvsRZ40nr7bww-166">
          <mxGeometry x="10" y="18" width="56.699999999999996" height="42" as="geometry" />
        </mxCell>
      </root>
    </mxGraphModel>
  </diagram>
</mxfile>
